<!DOCTYPE svg PUBLIC "-//W3C//DTD SVG 20010904//EN" "http://www.w3.org/TR/2001/REC-SVG-20010904/DTD/svg10.dtd">
<svg version="1.0" xmlns="http://www.w3.org/2000/svg" width="300px" height="300px" viewBox="0 0 3000 3000" preserveAspectRatio="xMidYMid meet">
<g id="layer101" fill="#c32031" stroke="none">
 <path d="M80 1606 c0 -879 3 -1337 10 -1334 9 3 241 162 656 449 l152 105 -212 370 c-117 203 -224 389 -239 414 l-26 45 327 287 c180 158 344 302 365 320 l39 33 -142 240 c-79 132 -164 275 -190 318 l-46 79 -347 5 -347 6 0 -1337z"/>
 <path d="M2197 2853 c-29 -49 -118 -193 -197 -322 l-143 -234 49 -46 c27 -25 182 -167 344 -315 162 -148 296 -273 298 -277 2 -3 -96 -192 -218 -419 -121 -227 -219 -414 -218 -415 44 -33 800 -555 803 -555 3 0 4 600 3 1333 l-3 1332 -332 3 -332 2 -54 -87z"/>
 <path d="M1430 2342 c-42 -37 -246 -213 -453 -391 -207 -178 -377 -329 -377 -334 0 -10 31 -64 515 -897 181 -311 342 -589 359 -617 17 -29 33 -53 37 -53 6 0 168 291 694 1248 174 316 178 324 159 341 -10 10 -122 112 -249 227 -126 115 -312 284 -413 376 -101 93 -186 168 -190 168 -4 -1 -41 -31 -82 -68z"/>
 </g>

</svg>