{"accessors" : [{"bufferView" : 0, "byteOffset" : 0, "componentType" : 5123, "count" : 1167, "type" : "SCALAR", "max" : [1166], "min" : [0]}, {"bufferView" : 1, "byteOffset" : 0, "componentType" : 5126, "count" : 1167, "type" : "VEC3", "max" : [0.763086199760437, 2.958477258682251, -1.4497780799865723], "min" : [0.21731522679328918, 2.412706136703491, -1.995548963546753], "name" : "POSITION"}, {"bufferView" : 1, "byteOffset" : 12, "componentType" : 5126, "count" : 1167, "type" : "VEC3", "max" : [1.0000044107437134, 1.0000044107437134, 1.0000044107437134], "min" : [-1.0000044107437134, -1.0000044107437134, -1.0000044107437134], "name" : "NORMAL"}, {"bufferView" : 1, "byteOffset" : 24, "componentType" : 5126, "count" : 1167, "type" : "VEC2", "max" : [1.0882320404052734, -0], "min" : [-0.08823230117559433, -2.0154342651367188], "name" : "TEXCOORD_0"}], "asset" : {"generator" : "Aspose.3D 22.10", "version" : "2.0"}, "buffers" : [{"uri" : "data:application/octet-stream;base64,", "byteLength" : 39688}], "bufferViews" : [{"buffer" : 0, "byteOffset" : 0, "byteLength" : 2336, "target" : 34963}, {"buffer" : 0, "byteOffset" : 2340, "byteLength" : 37344, "byteStride" : 32, "target" : 34962}], "materials" : [{"name" : "lambert35", "pbrMetallicRoughness" : {"baseColorFactor" : [0.7293999791145325, 0.04699999839067459, 0.1843000054359436, 1], "metallicFactor" : 0, "roughnessFactor" : 0}, "emissiveFactor" : [0, 0, 0], "alphaMode" : "OPAQUE", "doubleSided" : false}], "meshes" : [{"primitives" : [{"attributes" : {"POSITION" : 1, "NORMAL" : 2, "TEXCOORD_0" : 3}, "indices" : 0, "material" : 0, "mode" : 4}], "name" : ""}], "nodes" : [{"mesh" : 0, "name" : "polySurface15"}, {"children" : [0], "matrix" : [1, 0, 0, 0, 0, 1, 0, 0, 0, 0, 1, 0, 1.2438756494829875, 2.3413748463585886, 0, 1], "name" : "polySurface12"}], "scene" : 0, "scenes" : [{"nodes" : [1]}]}