{
  "asset": {
    "generator": "gltfeditor.com",
    "version": "2.0"
  },
  "buffers": [
    {
      "uri": "data:application/octet-stream;base64,",
      "byteLength": 39688
    }
  ],
  "bufferViews": [
    {
      "buffer": 0,
      "byteOffset": 2340,
      "byteLength": 37344,
      "target": 34962,
      "byteStride": 32
    },
    {
      "buffer": 0,
      "byteOffset": 0,
      "byteLength": 2336,
      "target": 34963
    }
  ],
  "accessors": [
    {
      "bufferView": 0,
      "byteOffset": 0,
      "componentType": 5126,
      "normalized": false,
      "count": 1167,
      "max": [
        0.2728855013847351,
        0.2728855609893799,
        0.27288544178009033
      ],
      "min": [
        -0.2728855013847351,
        -0.2728855609893799,
        -0.27288544178009033
      ],
      "type": "VEC3"
    },
    {
      "bufferView": 0,
      "byteOffset": 12,
      "componentType": 5126,
      "normalized": false,
      "count": 1167,
      "max": [
        1.0000044107437134,
        1.0000044107437134,
        1.0000044107437134
      ],
      "min": [
        -1.0000044107437134,
        -1.0000044107437134,
        -1.0000044107437134
      ],
      "type": "VEC3"
    },
    {
      "bufferView": 0,
      "byteOffset": 24,
      "componentType": 5126,
      "normalized": false,
      "count": 1167,
      "max": [
        1.0882320404052734,
        0
      ],
      "min": [
        -0.08823230117559433,
        -2.0154342651367188
      ],
      "type": "VEC2"
    },
    {
      "bufferView": 1,
      "byteOffset": 0,
      "componentType": 5123,
      "normalized": false,
      "count": 1167,
      "max": [
        1166
      ],
      "min": [
        0
      ],
      "type": "SCALAR"
    }
  ],
  "scene": 0,
  "scenes": [
    {
      "nodes": [
        1
      ],
      "name": "Cube"
    }
  ],
  "nodes": [
    {
      "name": "polySurface15",
      "mesh": 0
    },
    {
      "name": "polySurface12",
      "children": [
        0
      ]
    }
  ],
  "meshes": [
    {
      "primitives": [
        {
          "attributes": {
            "POSITION": 0,
            "NORMAL": 1,
            "TEXCOORD_0": 2
          },
          "material": 0,
          "mode": 4,
          "indices": 3
        }
      ]
    }
  ],
  "materials": [
    {
      "pbrMetallicRoughness": {
        "baseColorFactor": [
          0.7294117647058823,
          0.047058823529411764,
          0.1843137254901961,
          1
        ],
        "metallicFactor": 0,
        "roughnessFactor": 0
      },
      "emissiveFactor": [
        0,
        0,
        0
      ],
      "alphaMode": "OPAQUE",
      "doubleSided": false
    }
  ]
}